<svg width="440" height="440" viewBox="0 0 440 440" fill="none" xmlns="http://www.w3.org/2000/svg">
<path d="M109.8 109.801H111.3C171.4 109.201 219.8 60.1006 219.6 0.000617606C159.5 -0.199382 110.4 48.2006 109.8 108.301V109.801C49.6 109.601 0.6 158.001 0 218.101V219.601H1.5C61.6 218.901 110 169.901 109.8 109.801C109.6 169.901 158 218.901 218.1 219.601H219.6V218.101C218.9 158.001 169.9 109.601 109.8 109.801Z" fill="#5800FF"/>
<path d="M219.602 218.101V219.601H221.102C281.202 219.001 329.602 169.901 329.402 109.801C329.202 169.901 377.602 218.901 437.702 219.601H439.202V218.101C438.602 158.001 389.602 109.601 329.402 109.801C269.302 109.601 220.302 158.001 219.602 218.101Z" fill="#5800FF"/>
<path d="M327.9 109.801H329.4V108.301C328.8 48.1006 279.7 -0.199381 219.6 0.000618878C219.4 60.1006 267.8 109.101 327.9 109.801Z" fill="#5800FF"/>
<path d="M109.801 329.401H111.301C171.401 328.801 219.801 279.701 219.601 219.601C159.501 219.401 110.401 267.801 109.801 327.901C109.101 267.801 60.1006 219.401 0.000617606 219.601C-0.199382 279.701 48.2006 328.801 108.301 329.401H109.801C109.601 389.601 158.001 438.601 218.101 439.201H219.601V437.701C218.901 377.601 169.901 329.201 109.801 329.401Z" fill="#5800FF"/>
<path d="M329.4 327.901C328.8 267.801 279.7 219.401 219.6 219.601C219.4 279.701 267.8 328.801 327.9 329.401H329.4C269.3 329.201 220.3 377.601 219.6 437.701V439.201H221.1C281.2 438.601 329.6 389.601 329.4 329.401H330.9C391 328.801 439.4 279.701 439.2 219.601C379.1 219.401 330.1 267.801 329.4 327.901Z" fill="#5800FF"/>
</svg>
