<svg width="1613" height="1843" viewBox="0 0 1613 1843" fill="none" xmlns="http://www.w3.org/2000/svg">
<path d="M1608.12 652.397L816.746 3.42768C812.355 -0.475894 806.012 -0.475894 801.133 3.42768L4.39108 652.397C1.46367 654.837 0 658.253 0 661.668V1830.3C0 1837.13 5.36691 1842.5 12.1975 1842.5H1600.8C1607.63 1842.5 1613 1837.13 1613 1830.3V662.156C1612.51 658.253 1610.56 654.837 1608.12 652.397ZM1588.12 1818.59H23.9071V668.012L808.94 28.8009L1588.12 668.012V1818.59Z" fill="#54095B"/>
<path d="M154.665 730.957C151.737 733.397 150.273 736.812 150.273 740.228V1691.24C150.273 1698.07 155.64 1703.44 162.471 1703.44H1455.41C1462.24 1703.44 1467.61 1698.07 1467.61 1691.24V740.228C1467.61 736.812 1466.14 732.909 1463.21 730.957L818.698 202.51C814.306 198.607 807.964 198.607 803.085 202.51L154.665 730.957ZM1443.21 746.083V1679.53H174.668V746.083L810.891 227.395L1443.21 746.083Z" fill="#54095B"/>
<path d="M312.744 1564.37H1310.5C1317.33 1564.37 1322.7 1559 1322.7 1552.17V818.299C1322.7 814.884 1321.24 810.98 1318.31 809.028L821.137 401.104C816.746 397.201 810.403 397.201 805.524 401.104L304.938 809.028C302.011 811.468 300.547 814.884 300.547 818.299V1552.17C300.547 1559 306.402 1564.37 312.744 1564.37ZM324.942 824.155L813.331 426.478L1298.3 824.155V1539.97H324.942V824.155Z" fill="#54095B"/>
<path d="M823.577 600.186C819.186 596.283 812.843 596.283 807.964 600.186L455.7 887.099C452.772 889.539 451.309 892.955 451.309 896.37V1413.11C451.309 1419.94 456.676 1425.3 463.506 1425.3H1165.6C1172.43 1425.3 1177.79 1419.94 1177.79 1413.11V896.37C1177.79 892.955 1176.33 889.051 1173.4 887.099L823.577 600.186ZM1153.4 1400.91H475.704V902.226L815.771 625.072L1153.4 902.226V1400.91Z" fill="#54095B"/>
<path d="M606.461 965.171C603.534 967.611 602.07 971.026 602.07 974.442V1274.04C602.07 1280.87 607.437 1286.24 614.268 1286.24H1021.18C1028.01 1286.24 1033.37 1280.87 1033.37 1274.04V974.442C1033.37 971.026 1031.91 967.123 1028.98 965.171L826.017 798.781C821.626 794.878 815.283 794.878 810.404 798.781L606.461 965.171ZM1008.98 980.785V1262.33H626.465V980.785L818.21 824.642L1008.98 980.785Z" fill="#54095B"/>
</svg>
