<svg width="105" height="104" viewBox="0 0 105 104" fill="none" xmlns="http://www.w3.org/2000/svg">
<path d="M74.6892 35.3331H87.6171C88.9471 35.3143 90.2395 35.7755 91.2579 36.6324C92.2764 37.4892 92.9529 38.6845 93.1638 39.9997L102.428 95.5542C102.558 96.3546 102.512 97.174 102.292 97.9546C102.072 98.7352 101.684 99.4581 101.156 100.072C100.627 100.687 99.9702 101.178 99.2317 101.511C98.4932 101.844 97.6909 102.01 96.8811 101.999H8.11895C7.30915 102.01 6.50678 101.844 5.76829 101.511C5.02979 101.178 4.37309 100.687 3.84438 100.072C3.31567 99.4581 2.92779 98.7352 2.70802 97.9546C2.48825 97.174 2.44193 96.3546 2.57232 95.5542L11.8389 39.9997C12.0497 38.685 12.7258 37.49 13.7437 36.6332C14.7616 35.7764 16.0533 35.3149 17.3829 35.3331H30.3108" stroke="#2F2F30" stroke-width="4" stroke-linecap="round" stroke-linejoin="round"/>
<path d="M74.6894 24.2212C74.6894 18.3278 72.3516 12.6757 68.1903 8.50845C64.029 4.34116 58.3851 2 52.5002 2C46.6152 2 40.9713 4.34116 36.81 8.50845C32.6488 12.6757 30.311 18.3278 30.311 24.2212C30.311 46.4452 52.5002 68.6664 52.5002 68.6664C52.5002 68.6664 74.6894 46.4452 74.6894 24.2212Z" stroke="#FF172A" stroke-width="4" stroke-linecap="round" stroke-linejoin="round"/>
</svg>
