<svg width="40" height="40" viewBox="0 0 40 40" fill="none" xmlns="http://www.w3.org/2000/svg">
<path d="M28.8889 0C31.8357 0 34.6619 1.17063 36.7456 3.25437C38.8294 5.33811 40 8.16426 40 11.1111V28.8889C40 31.8357 38.8294 34.6619 36.7456 36.7456C34.6619 38.8294 31.8357 40 28.8889 40H11.1111C8.16426 40 5.33811 38.8294 3.25437 36.7456C1.17063 34.6619 0 31.8357 0 28.8889V11.1111C0 8.16426 1.17063 5.33811 3.25437 3.25437C5.33811 1.17063 8.16426 0 11.1111 0H28.8889ZM20 11.1111C17.6425 11.1111 15.3816 12.0476 13.7146 13.7146C12.0476 15.3816 11.1111 17.6425 11.1111 20C11.1111 22.3575 12.0476 24.6184 13.7146 26.2854C15.3816 27.9524 17.6425 28.8889 20 28.8889C22.3575 28.8889 24.6184 27.9524 26.2854 26.2854C27.9524 24.6184 28.8889 22.3575 28.8889 20C28.8889 17.6425 27.9524 15.3816 26.2854 13.7146C24.6184 12.0476 22.3575 11.1111 20 11.1111ZM20 15.5556C21.1787 15.5556 22.3092 16.0238 23.1427 16.8573C23.9762 17.6908 24.4444 18.8213 24.4444 20C24.4444 21.1787 23.9762 22.3092 23.1427 23.1427C22.3092 23.9762 21.1787 24.4444 20 24.4444C18.8213 24.4444 17.6908 23.9762 16.8573 23.1427C16.0238 22.3092 15.5556 21.1787 15.5556 20C15.5556 18.8213 16.0238 17.6908 16.8573 16.8573C17.6908 16.0238 18.8213 15.5556 20 15.5556ZM30 7.77778C29.4106 7.77778 28.8454 8.0119 28.4287 8.42865C28.0119 8.8454 27.7778 9.41063 27.7778 10C27.7778 10.5894 28.0119 11.1546 28.4287 11.5713C28.8454 11.9881 29.4106 12.2222 30 12.2222C30.5894 12.2222 31.1546 11.9881 31.5714 11.5713C31.9881 11.1546 32.2222 10.5894 32.2222 10C32.2222 9.41063 31.9881 8.8454 31.5714 8.42865C31.1546 8.0119 30.5894 7.77778 30 7.77778Z" fill="#2F2F30"/>
</svg>
