<svg width="80" height="80" viewBox="0 0 80 80" fill="none" xmlns="http://www.w3.org/2000/svg">
<path d="M37.708 50.96C38.3881 51.409 39.1851 51.6484 40 51.6484C40.8149 51.6484 41.6119 51.409 42.292 50.96L65 35.832V2.5H15V35.834L37.708 50.96Z" stroke="#FF172A" stroke-width="4" stroke-linecap="round" stroke-linejoin="round"/>
<path d="M42.292 50.96L71.042 31.666C71.6687 31.2531 72.3954 31.0171 73.1451 30.9831C73.8949 30.9491 74.6399 31.1182 75.3015 31.4727C75.963 31.8271 76.5166 32.3537 76.9036 32.9967C77.2905 33.6398 77.4966 34.3755 77.5 35.126V73.334C77.5 74.4389 77.0611 75.4985 76.2798 76.2798C75.4985 77.0611 74.4389 77.5 73.334 77.5H6.66601C5.56112 77.5 4.50148 77.0611 3.7202 76.2798C2.93893 75.4985 2.50001 74.4389 2.50001 73.334V35.292C2.47313 34.5274 2.65721 33.7702 3.03209 33.1032C3.40697 32.4363 3.95818 31.8854 4.62534 31.511C5.2925 31.1365 6.04986 30.9529 6.81444 30.9802C7.57902 31.0076 8.32132 31.2448 8.96001 31.666L37.708 50.792C38.3717 51.266 39.1601 51.5344 39.9751 51.5639C40.7901 51.5934 41.5958 51.3847 42.292 50.96Z" stroke="#2F2F30" stroke-width="4" stroke-linecap="round" stroke-linejoin="round"/>
</svg>
