<svg width="80" height="80" viewBox="0 0 80 80" fill="none" xmlns="http://www.w3.org/2000/svg">
<path d="M37.708 50.96C38.3881 51.409 39.1851 51.6484 40 51.6484C40.8149 51.6484 41.6119 51.409 42.292 50.96L65 35.832V2.5H15V35.834L37.708 50.96Z" stroke="#E900FF" stroke-width="4" stroke-linecap="round" stroke-linejoin="round"/>
<path d="M42.2926 50.96L71.0426 31.666C71.6693 31.2531 72.396 31.0171 73.1457 30.9831C73.8955 30.9491 74.6405 31.1182 75.3021 31.4727C75.9637 31.8271 76.5172 32.3537 76.9042 32.9967C77.2912 33.6398 77.4972 34.3755 77.5006 35.126V73.334C77.5006 74.4389 77.0617 75.4985 76.2804 76.2798C75.4991 77.0611 74.4395 77.5 73.3346 77.5H6.66662C5.56173 77.5 4.50209 77.0611 3.72081 76.2798C2.93954 75.4985 2.50062 74.4389 2.50062 73.334V35.292C2.47374 34.5274 2.65782 33.7702 3.0327 33.1032C3.40758 32.4363 3.95879 31.8854 4.62595 31.511C5.29311 31.1365 6.05047 30.9529 6.81505 30.9802C7.57963 31.0076 8.32193 31.2448 8.96062 31.666L37.7086 50.792C38.3723 51.266 39.1607 51.5344 39.9757 51.5639C40.7907 51.5934 41.5964 51.3847 42.2926 50.96Z" stroke="#2F2F30" stroke-width="4" stroke-linecap="round" stroke-linejoin="round"/>
</svg>
