<svg width="105" height="104" viewBox="0 0 105 104" fill="none" xmlns="http://www.w3.org/2000/svg">
<path d="M102.499 68.8484V90.7399C102.517 92.3494 102.184 93.9436 101.524 95.4126C100.863 96.8817 99.8912 98.1907 98.6743 99.2497C97.4574 100.309 96.0246 101.092 94.4745 101.547C92.9244 102.001 91.2939 102.116 89.6951 101.882C67.5318 99.0471 46.9454 88.9467 31.18 73.1726C15.4145 57.3984 5.36608 36.8473 2.61815 14.7575C2.38459 13.1695 2.49817 11.55 2.95112 10.0098C3.40407 8.46963 4.1857 7.04508 5.24252 5.83366C6.29935 4.62223 7.60642 3.65252 9.0743 2.99089C10.5422 2.32925 12.1362 1.99131 13.7474 2.00017H35.3884C36.7708 1.99183 38.1072 2.49386 39.1398 3.40937C40.1724 4.32488 40.828 5.58897 40.9799 6.95764C41.5356 14.2575 43.4307 21.3969 46.574 28.0148C47.113 29.2684 47.1716 30.6753 46.7387 31.969C46.3058 33.2627 45.4115 34.3532 44.2253 35.0339L39.4149 37.7613C38.7218 38.1417 38.1175 38.6642 37.642 39.2943C37.1665 39.9244 36.8305 40.6477 36.6562 41.4167C36.482 42.1856 36.4734 42.9826 36.631 43.7551C36.7887 44.5276 37.109 45.258 37.5708 45.8981C43.1016 53.9718 50.1002 60.9433 58.2052 66.4526C58.8475 66.913 59.5805 67.2324 60.3559 67.3897C61.1313 67.5469 61.9313 67.5385 62.7031 67.3648C63.475 67.1912 64.201 66.8563 64.8333 66.3824C65.4656 65.9085 65.9897 65.3063 66.371 64.6156L69.109 59.8239C69.833 58.6262 70.9828 57.7436 72.3299 57.3512C73.6771 56.9589 75.1231 57.0856 76.3808 57.7062C83.026 60.8351 90.1909 62.7238 97.5199 63.2787C98.8939 63.43 100.163 64.083 101.082 65.1116C102.001 66.1402 102.508 67.4715 102.499 68.8484Z" stroke="#FF172A" stroke-width="4" stroke-linecap="round" stroke-linejoin="round"/>
</svg>
