<svg width="19" height="18" viewBox="0 0 19 18" fill="none" xmlns="http://www.w3.org/2000/svg">
<path d="M6.71838 15.2982L5.63655 15.9468C5.09002 16.2737 4.81675 16.438 4.53656 16.4977C4.15607 16.579 3.76087 16.5297 3.41237 16.3593C3.15466 16.2322 2.92982 16.0065 2.47842 15.555C2.02874 15.1053 1.80303 14.8796 1.67678 14.6219C1.50578 14.2732 1.45704 13.8772 1.53841 13.4976C1.59722 13.2165 1.76152 12.9424 2.0884 12.3958L5.85534 6.09807C6.47624 5.06027 6.78669 4.54137 7.21302 4.31565C7.58747 4.11674 8.02158 4.06398 8.43235 4.1643C8.90278 4.27933 9.32998 4.70742 10.1844 5.56274L12.4639 7.84416C13.3183 8.69948 13.7455 9.12671 13.8614 9.59631C13.9617 10.008 13.9081 10.443 13.71 10.8175C13.4843 11.2447 12.9663 11.5552 11.9286 12.177L10.8303 12.8351M6.71838 15.2982C6.88626 15.6422 7.13395 15.9412 7.44078 16.1701C7.74762 16.3991 8.10472 16.5514 8.48234 16.6143C8.85995 16.6773 9.24715 16.6491 9.61165 16.5321C9.97616 16.415 10.3074 16.2126 10.5778 15.9416C10.9812 15.5377 11.228 15.0036 11.2741 14.4346C11.3202 13.8656 11.1635 13.2987 10.8303 12.8351M6.71838 15.2982L10.8303 12.8351" stroke="#1C1C1E" stroke-width="2"/>
<path d="M16.4236 2.43036L14.292 4.56304M17.4994 7.16359H15.3461M11.6934 1.35278V3.50795" stroke="#1C1C1E" stroke-width="2" stroke-linecap="round" stroke-linejoin="round"/>
</svg>
