<svg width="38" height="30" viewBox="0 0 38 30" fill="none" xmlns="http://www.w3.org/2000/svg">
<path d="M8 15C7.08075 15 6.17049 15.1811 5.32122 15.5328C4.47194 15.8846 3.70026 16.4002 3.05025 17.0503C2.40024 17.7003 1.88463 18.4719 1.53284 19.3212C1.18106 20.1705 1 21.0807 1 22C1 22.9193 1.18106 23.8295 1.53284 24.6788C1.88463 25.5281 2.40024 26.2997 3.05025 26.9497C3.70026 27.5998 4.47194 28.1154 5.32122 28.4672C6.17049 28.8189 7.08075 29 8 29C9.85652 29 11.637 28.2625 12.9497 26.9497C14.2625 25.637 15 23.8565 15 22C15 20.1435 14.2625 18.363 12.9497 17.0503C11.637 15.7375 9.85652 15 8 15ZM8 15V1M8 1L13 5.8M8 1L3 5.8M30 15C29.0807 15 28.1705 15.1811 27.3212 15.5328C26.4719 15.8846 25.7003 16.4002 25.0503 17.0503C24.4002 17.7003 23.8846 18.4719 23.5328 19.3212C23.1811 20.1705 23 21.0807 23 22C23 22.9193 23.1811 23.8295 23.5328 24.6788C23.8846 25.5281 24.4002 26.2997 25.0503 26.9497C25.7003 27.5998 26.4719 28.1154 27.3212 28.4672C28.1705 28.8189 29.0807 29 30 29C31.8565 29 33.637 28.2625 34.9497 26.9497C36.2625 25.637 37 23.8565 37 22C37 20.1435 36.2625 18.363 34.9497 17.0503C33.637 15.7375 31.8565 15 30 15ZM30 15V1M30 1L35 5.8M30 1L25 5.8" stroke="#E900FF" stroke-width="2" stroke-linecap="round" stroke-linejoin="round"/>
</svg>
